<svg width="62" height="62" viewBox="0 0 62 62" fill="none" xmlns="http://www.w3.org/2000/svg">
<rect width="62" height="62" rx="31" fill="#F3803F"/>
<path d="M15.4827 10L15.7258 14.5136C16.5096 13.9307 18.14 13.9867 19.0497 14.8281L15.7993 15.881L15.8553 16.8992L18.21 16.8104L15.8955 17.6545L16.144 22.2569L10.0149 18.4097L10 22.5857L16.4309 27.3391L18.0351 25.3756C18.175 26.3618 17.9738 27.4902 16.6845 29.0895C16.6845 29.0895 17.2706 33.7097 17.0169 40.2225L20.7029 40.5779L16.9819 41.0665C16.9469 41.4664 16.9294 41.8573 16.9032 42.266C21.5077 40.8799 22.4961 43.1456 22.4961 43.1456L16.772 44.0608C16.5796 46.282 16.2787 48.5922 15.8352 51H25.3126C25.3126 44.3362 24.7703 40.1425 24.5079 35.8244C22.5748 36.0731 20.5455 35.7266 20.5455 35.7266C20.5455 35.7266 21.5951 34.1273 24.4292 34.1717C24.368 32.2615 24.368 30.2623 24.5167 27.9789L20.7029 27.6235L23.7469 27.197C23.3183 24.1938 22.8722 21.3951 22.4611 18.8095L20.2481 18.8539L22.2074 17.2102C21.7788 14.5047 21.4114 12.0809 21.1928 10H15.4827ZM38.8444 10C38.7657 10.916 38.6869 11.8125 38.6345 12.6913C40.1739 11.5629 42.0458 13.7184 42.0458 13.7184C42.0458 13.7184 40.2527 15.4385 38.5295 14.3199V14.3377C38.4158 16.2009 38.3371 18.0632 38.2671 19.9201C38.1971 21.6794 38.1446 23.4297 38.0659 25.1801C38.0222 26.2019 37.9697 27.2148 37.9172 28.2454C39.1593 28.7252 40.4364 29.1872 41.6872 29.6493L37.786 30.3156C37.5148 34.1806 37.06 38.2411 36.1853 42.8346L40.4888 44.0608L35.8879 44.3362C35.4593 46.3709 34.9432 48.5922 34.3221 51H45.0898C45.0986 50.2625 45.0985 49.6139 45.116 48.9653L43.6465 48.5033C43.6465 48.5033 44.2676 47.8547 45.1423 47.3927C45.2385 43.6787 45.4484 40.5512 45.7196 37.9035L42.4482 37.2104L45.7983 37.1393C45.8246 36.8461 45.8683 36.5529 45.9033 36.2686C44.0402 36.3219 42.0896 35.4423 42.0896 35.4423C42.0896 35.4423 43.664 33.4165 46.087 34.8203C47.1716 26.966 48.7723 24.5937 48.7723 24.5937L44.5737 29.8625C44.53 28.4142 45.0723 26.2907 46.5506 24.8158C46.2444 23.4475 46.122 21.8215 46.1045 20.1512L43.874 19.6447L46.1045 19.3515C46.1045 19.005 46.1132 18.6674 46.1307 18.3208L42.4482 18.7295C42.4482 18.7295 43.9177 16.3963 46.1744 17.1214C46.3931 13.3017 46.9704 10 46.9704 10H38.8444ZM27.5432 10.7863L28.2342 15.2075L23.6857 11.9147L24.3767 13.8108C31.4706 18.4008 33.7711 21.5372 36.3165 24.9224L36.4214 20.7376C36.4214 20.7376 31.6193 19.9024 27.5432 10.7863ZM52 12.9134L47.9851 15.0645L47.8014 17.9032L51.9388 14.7117L52 12.9134ZM20.9566 28.7519C21.4902 28.743 22.1112 28.8585 22.8022 29.1961C21.7263 30.8221 18.8485 29.6137 18.8485 29.6137C19.5308 29.0806 20.1081 28.7785 20.9566 28.7519ZM40.2352 40.489C41.0049 40.4712 41.7922 40.8533 42.4482 42.0172C41.0836 42.8169 39.8328 42.808 38.9319 42.5948C38.0309 42.3904 37.4711 41.9817 37.4711 41.9817C37.4711 41.9817 38.7919 40.5245 40.2352 40.489ZM21.6651 47.2772C22.3736 47.2505 23.1609 47.5526 23.9394 48.5033C21.9188 49.5162 19.2509 48.5922 19.2509 48.5922C20.0731 47.8902 20.598 47.3127 21.6651 47.2772Z" fill="white"/>
</svg>
