<svg width="62" height="62" viewBox="0 0 62 62" fill="none" xmlns="http://www.w3.org/2000/svg">
<rect width="62" height="62" rx="31" fill="#F3803F"/>
<path d="M43.8375 31.5189C44.6082 35.7387 43.7755 40.0944 41.5026 43.7325C39.2297 47.3705 35.6804 50.029 31.5501 51.187C27.4197 52.3453 23.0056 51.9194 19.1727 49.9933C15.3397 48.0671 12.364 44.7793 10.8284 40.7739C9.29272 36.7685 9.30784 32.334 10.8707 28.339C12.4337 24.3443 15.4317 21.0768 19.2778 19.1769C23.1238 17.2769 27.5406 16.8813 31.663 18.0675C35.7854 19.2537 39.3165 21.9363 41.5644 25.5898" stroke="white" stroke-width="1.5" stroke-linecap="round" stroke-linejoin="round"/>
<path d="M30.6934 9.6875V17.8272" stroke="white" stroke-width="1.5" stroke-linecap="round" stroke-linejoin="round"/>
<path d="M23.4248 9.6875V17.7608" stroke="white" stroke-width="1.5" stroke-linecap="round" stroke-linejoin="round"/>
<path d="M19.6367 12.4796H34.7908" stroke="white" stroke-width="1.5" stroke-linecap="round" stroke-linejoin="round"/>
<path d="M47.6986 17.8859L37.3066 30.8995" stroke="white" stroke-width="1.5" stroke-linecap="round" stroke-linejoin="round"/>
<path d="M49.4712 18.5072C51.0404 18.5072 52.3126 17.235 52.3126 15.6658C52.3126 14.0965 51.0404 12.8244 49.4712 12.8244C47.9019 12.8244 46.6299 14.0965 46.6299 15.6658C46.6299 17.235 47.9019 18.5072 49.4712 18.5072Z" stroke="white" stroke-width="1.5" stroke-linecap="round" stroke-linejoin="round"/>
<path d="M32.972 31.5834C32.9701 31.0674 32.8499 30.5588 32.6211 30.0963C32.3923 29.634 32.0608 29.2301 31.6518 28.9156C31.2428 28.6012 30.7671 28.3846 30.2616 28.2823C29.7559 28.1798 29.2336 28.1945 28.7345 28.3251C28.7494 27.8829 28.6771 27.442 28.5216 27.0276C28.3662 26.6133 28.1306 26.2336 27.8283 25.9103C27.5263 25.587 27.1632 25.3264 26.7604 25.1434C26.3574 24.9603 25.9224 24.8584 25.4801 24.8435C24.5869 24.8134 23.7182 25.1393 23.0653 25.7496C22.742 26.0518 22.4814 26.4147 22.2983 26.8176C22.1153 27.2205 22.0134 27.6555 21.9985 28.0978V28.3251C21.187 28.1059 20.3228 28.1986 19.576 28.5843C18.8292 28.9701 18.2538 29.6213 17.9629 30.41C17.672 31.1986 17.6867 32.0675 18.0041 32.8458C18.3215 33.6243 18.9186 34.2558 19.678 34.6159C19.3971 35.3543 19.3848 36.1681 19.6433 36.9146C19.9019 37.6611 20.4148 38.2929 21.0922 38.6994C21.7697 39.1059 22.5685 39.2611 23.3489 39.1381C24.1293 39.0148 24.8415 38.6211 25.3608 38.0258C25.8801 38.6211 26.5923 39.0148 27.3726 39.1381C28.153 39.2611 28.9519 39.1059 29.6294 38.6994C30.3068 38.2929 30.8196 37.6611 31.0783 36.9146C31.3367 36.1681 31.3245 35.3543 31.0436 34.6159C31.6183 34.3437 32.1042 33.9146 32.4456 33.3781C32.7868 32.8414 32.9693 32.2193 32.972 31.5834Z" stroke="white" stroke-width="1.5" stroke-linecap="round" stroke-linejoin="round"/>
<path d="M25.3637 46.3888C24.9713 46.3888 24.6533 46.0708 24.6533 45.6785C24.6533 45.2861 24.9713 44.9682 25.3637 44.9682" stroke="white" stroke-width="1.5"/>
<path d="M25.3643 46.3888C25.7566 46.3888 26.0746 46.0708 26.0746 45.6785C26.0746 45.2861 25.7566 44.9682 25.3643 44.9682" stroke="white" stroke-width="1.5"/>
<path d="M25.3637 33.431C24.9713 33.431 24.6533 33.113 24.6533 32.7207C24.6533 32.3283 24.9713 32.0104 25.3637 32.0104" stroke="white" stroke-width="1.5"/>
<path d="M25.3643 33.431C25.7566 33.431 26.0746 33.113 26.0746 32.7207C26.0746 32.3283 25.7566 32.0104 25.3643 32.0104" stroke="white" stroke-width="1.5"/>
<path d="M33.607 43.7842C33.2146 43.7842 32.8965 43.4663 32.8965 43.0739C32.8965 42.6816 33.2146 42.3636 33.607 42.3636" stroke="white" stroke-width="1.5"/>
<path d="M33.6064 43.7842C33.9988 43.7842 34.3167 43.4663 34.3167 43.0739C34.3167 42.6816 33.9988 42.3636 33.6064 42.3636" stroke="white" stroke-width="1.5"/>
</svg>
