<svg width="62" height="62" viewBox="0 0 62 62" fill="none" xmlns="http://www.w3.org/2000/svg">
<rect width="62" height="62" rx="31" fill="#F3803F"/>
<path d="M29.5469 41.1719C29.5469 44.255 30.7716 47.2119 32.9518 49.392C35.1319 51.5721 38.0887 52.7969 41.1719 52.7969C44.255 52.7969 47.2119 51.5721 49.392 49.392C51.5721 47.2119 52.7969 44.255 52.7969 41.1719C52.7969 38.0887 51.5721 35.1319 49.392 32.9518C47.2119 30.7716 44.255 29.5469 41.1719 29.5469C38.0887 29.5469 35.1319 30.7716 32.9518 32.9518C30.7716 35.1319 29.5469 38.0887 29.5469 41.1719Z" stroke="#F6F6F9" stroke-width="1.5" stroke-linecap="round" stroke-linejoin="round"/>
<path d="M9.20312 9.20312H32.4531" stroke="#F6F6F9" stroke-width="1.5" stroke-linecap="round" stroke-linejoin="round"/>
<path d="M9.20312 38.2656H23.7344" stroke="#F6F6F9" stroke-width="1.5" stroke-linecap="round" stroke-linejoin="round"/>
<path d="M12.1094 38.2656V9.20312H29.5469V26.6406" stroke="#F6F6F9" stroke-width="1.5" stroke-linecap="round" stroke-linejoin="round"/>
<path d="M12.1094 16.4688H29.5469" stroke="#F6F6F9" stroke-width="1.5" stroke-linecap="round" stroke-linejoin="round"/>
<path d="M12.1094 23.7344H29.5469" stroke="#F6F6F9" stroke-width="1.5" stroke-linecap="round" stroke-linejoin="round"/>
<path d="M12.1094 31H26.6406" stroke="#F6F6F9" stroke-width="1.5" stroke-linecap="round" stroke-linejoin="round"/>
<path d="M41.1719 29.5469V17.9219" stroke="#F6F6F9" stroke-width="1.5" stroke-linecap="round" stroke-linejoin="round"/>
<path d="M46.1709 30.6745L49.8909 20.8281" stroke="#F6F6F9" stroke-width="1.5" stroke-linecap="round" stroke-linejoin="round"/>
<path d="M29.8604 38.4826L47.6679 50.8109" stroke="#F6F6F9" stroke-width="1.5" stroke-linecap="round" stroke-linejoin="round"/>
<path d="M33.6719 32.2904L52.1266 45.0682" stroke="#F6F6F9" stroke-width="1.5" stroke-linecap="round" stroke-linejoin="round"/>
</svg>
