<svg width="62" height="62" viewBox="0 0 62 62" fill="none" xmlns="http://www.w3.org/2000/svg">
<rect width="62" height="62" rx="31" fill="#F3803F"/>
<path d="M9.20312 32.9588C9.20312 33.7296 9.50932 34.4688 10.0543 35.0138C10.5994 35.5589 11.3386 35.8651 12.1094 35.8651C12.8802 35.8651 13.6194 35.5589 14.1644 35.0138C14.7094 34.4688 15.0156 33.7296 15.0156 32.9588C15.0156 32.188 14.7094 31.4488 14.1644 30.9038C13.6194 30.3587 12.8802 30.0526 12.1094 30.0526C11.3386 30.0526 10.5994 30.3587 10.0543 30.9038C9.50932 31.4488 9.20312 32.188 9.20312 32.9588Z" stroke="white" stroke-width="1.5" stroke-linecap="round" stroke-linejoin="round"/>
<path d="M35.4 9.66812L14.165 30.9031" stroke="white" stroke-width="1.5" stroke-linecap="round" stroke-linejoin="round"/>
<path d="M46.9844 32.9588C46.9844 33.7296 47.2906 34.4688 47.8356 35.0138C48.3806 35.5589 49.1198 35.8651 49.8906 35.8651C50.6614 35.8651 51.4006 35.5589 51.9457 35.0138C52.4907 34.4688 52.7969 33.7296 52.7969 32.9588C52.7969 32.188 52.4907 31.4488 51.9457 30.9038C51.4006 30.3587 50.6614 30.0526 49.8906 30.0526C49.1198 30.0526 48.3806 30.3587 47.8356 30.9038C47.2906 31.4488 46.9844 32.188 46.9844 32.9588Z" stroke="white" stroke-width="1.5" stroke-linecap="round" stroke-linejoin="round"/>
<path d="M26.5996 9.66812L47.8346 30.9031" stroke="white" stroke-width="1.5" stroke-linecap="round" stroke-linejoin="round"/>
<path d="M42.5587 25.6273C40.5262 31.2034 40.6871 45.0585 40.6871 45.0585H21.3121C21.3121 45.0585 21.4729 31.2034 19.4404 25.6273" stroke="white" stroke-width="1.5" stroke-linecap="round" stroke-linejoin="round"/>
<path d="M21.3125 45.0566V52.3319" stroke="white" stroke-width="1.5" stroke-linecap="round" stroke-linejoin="round"/>
<path d="M27.6094 45.0566V52.3319" stroke="white" stroke-width="1.5" stroke-linecap="round" stroke-linejoin="round"/>
<path d="M34.3906 45.0566V52.3319" stroke="white" stroke-width="1.5" stroke-linecap="round" stroke-linejoin="round"/>
<path d="M40.6875 45.0566V52.3319" stroke="white" stroke-width="1.5" stroke-linecap="round" stroke-linejoin="round"/>
<path d="M21.1904 38.5252H40.8096" stroke="white" stroke-width="1.5" stroke-linecap="round" stroke-linejoin="round"/>
<path d="M20.6514 31.5057H41.3477" stroke="white" stroke-width="1.5" stroke-linecap="round" stroke-linejoin="round"/>
</svg>
