<svg width="62" height="63" viewBox="0 0 62 63" fill="none" xmlns="http://www.w3.org/2000/svg">
<rect y="0.103516" width="62" height="62" rx="31" fill="#F3803F"/>
<path d="M41.0205 13.999H46.4998" stroke="white" stroke-width="1.5" stroke-linecap="round" stroke-linejoin="round"/>
<path d="M43.7607 11.2598V16.739" stroke="white" stroke-width="1.5" stroke-linecap="round" stroke-linejoin="round"/>
<path d="M49.4062 25.0137C48.8713 25.0137 48.4375 24.58 48.4375 24.0449C48.4375 23.5099 48.8713 23.0762 49.4062 23.0762" stroke="white" stroke-width="1.5"/>
<path d="M49.4062 25.0137C49.9412 25.0137 50.375 24.58 50.375 24.0449C50.375 23.5099 49.9412 23.0762 49.4062 23.0762" stroke="white" stroke-width="1.5"/>
<path d="M34.875 30.8733V9.47363" stroke="white" stroke-width="1.5" stroke-linecap="round" stroke-linejoin="round"/>
<path d="M48.7219 46.735L44.5485 36.2996C44.2532 34.7965 43.4532 33.4393 42.2814 32.4527C41.1094 31.4661 39.6358 30.9095 38.1044 30.8746H27.5469V25.9475C27.5469 19.5944 24.6756 17.1377 21.781 17.1377C18.8863 17.1377 17.2743 18.3816 11.8183 21.6598C10.823 22.2554 10.105 23.2219 9.82232 24.3469C9.53963 25.4718 9.7154 26.663 10.311 27.6583C10.9065 28.6536 11.8731 29.3717 12.998 29.6544C14.123 29.937 15.3141 29.7613 16.3095 29.1657L16.9701 28.7782C17.0941 28.8848 17.2065 29.0049 17.3383 29.1037V37.4466C17.3383 37.4931 17.3518 37.5377 17.3518 37.5842L13.3451 46.5838C13.0989 47.1101 12.9602 47.6803 12.937 48.2607C12.9137 48.8412 13.0065 49.4207 13.2098 49.965C13.4131 50.5092 13.7228 51.0075 14.1209 51.4307C14.5191 51.8538 14.9976 52.1933 15.5284 52.4295C16.0593 52.6655 16.6319 52.7933 17.2128 52.8055C17.7937 52.8177 18.3712 52.7141 18.9115 52.5004C19.4518 52.2869 19.9441 51.9676 20.3596 51.5615C20.7751 51.1554 21.1055 50.6706 21.3315 50.1353L24.0653 43.9876H38.1044H38.1993L40.6018 49.9938C40.8151 50.527 41.1315 51.013 41.5326 51.4239C41.9336 51.8349 42.4118 52.1627 42.9398 52.3888C43.4676 52.6151 44.0349 52.735 44.6091 52.742C45.1832 52.7488 45.7532 52.6426 46.2864 52.4293C46.8196 52.216 47.3056 51.8996 47.7165 51.4985C48.1274 51.0974 48.4553 50.6193 48.6816 50.0913C48.9077 49.5635 49.0276 48.9962 49.0346 48.4219C49.0416 47.8479 48.9352 47.2779 48.7219 46.7447V46.735Z" stroke="white" stroke-width="1.5" stroke-linecap="round" stroke-linejoin="round"/>
<path d="M42.7275 32.8902C48.1913 30.7028 50.1269 33.0588 52.3124 38.5225" stroke="white" stroke-width="1.5" stroke-linecap="round" stroke-linejoin="round"/>
<path d="M32.6396 30.873L29.3613 43.988" stroke="white" stroke-width="1.5" stroke-linecap="round" stroke-linejoin="round"/>
<path d="M39.5537 31.0381L37.0117 43.9883" stroke="white" stroke-width="1.5" stroke-linecap="round" stroke-linejoin="round"/>
<path d="M25.118 18.4713L23.4072 11.5215" stroke="white" stroke-width="1.5" stroke-linecap="round" stroke-linejoin="round"/>
</svg>
