<svg width="62" height="62" viewBox="0 0 62 62" fill="none" xmlns="http://www.w3.org/2000/svg">
<rect width="62" height="62" rx="31" fill="#F3803F"/>
<path d="M41.0205 13.8958H46.4998" stroke="white" stroke-width="1.5" stroke-linecap="round" stroke-linejoin="round"/>
<path d="M43.7607 11.1561V16.6354" stroke="white" stroke-width="1.5" stroke-linecap="round" stroke-linejoin="round"/>
<path d="M49.4062 24.9104C48.8713 24.9104 48.4375 24.4767 48.4375 23.9417C48.4375 23.4067 48.8713 22.9729 49.4062 22.9729" stroke="white" stroke-width="1.5"/>
<path d="M49.4062 24.9104C49.9412 24.9104 50.375 24.4767 50.375 23.9417C50.375 23.4067 49.9412 22.9729 49.4062 22.9729" stroke="white" stroke-width="1.5"/>
<path d="M34.875 30.7694V9.36975" stroke="white" stroke-width="1.5" stroke-linecap="round" stroke-linejoin="round"/>
<path d="M48.7219 46.6318L44.5485 36.1964C44.2532 34.6933 43.4532 33.336 42.2814 32.3495C41.1094 31.3629 39.6358 30.8063 38.1044 30.7714H27.5469V25.8443C27.5469 19.4912 24.6756 17.0345 21.781 17.0345C18.8863 17.0345 17.2743 18.2784 11.8183 21.5566C10.823 22.1522 10.105 23.1187 9.82232 24.2437C9.53963 25.3686 9.7154 26.5598 10.311 27.5551C10.9065 28.5504 11.8731 29.2685 12.998 29.5511C14.123 29.8338 15.3141 29.6581 16.3095 29.0625L16.9701 28.675C17.0941 28.7816 17.2065 28.9017 17.3383 29.0005V37.3434C17.3383 37.3899 17.3518 37.4344 17.3518 37.4809L13.3451 46.4806C13.0989 47.0069 12.9602 47.5771 12.937 48.1575C12.9137 48.738 13.0065 49.3175 13.2098 49.8618C13.4131 50.406 13.7228 50.9043 14.1209 51.3275C14.5191 51.7506 14.9976 52.0901 15.5284 52.3263C16.0593 52.5622 16.6319 52.6901 17.2128 52.7023C17.7937 52.7145 18.3712 52.6109 18.9115 52.3972C19.4518 52.1837 19.9441 51.8644 20.3596 51.4583C20.7751 51.0522 21.1055 50.5674 21.3315 50.0321L24.0653 43.8844H38.1044H38.1993L40.6018 49.8906C40.8151 50.4238 41.1315 50.9098 41.5326 51.3207C41.9336 51.7316 42.4118 52.0595 42.9398 52.2856C43.4676 52.5119 44.0349 52.6318 44.6091 52.6388C45.1832 52.6456 45.7532 52.5394 46.2864 52.3261C46.8196 52.1127 47.3056 51.7964 47.7165 51.3953C48.1274 50.9942 48.4553 50.5161 48.6816 49.9881C48.9077 49.4603 49.0276 48.893 49.0346 48.3187C49.0416 47.7447 48.9352 47.1746 48.7219 46.6414V46.6318Z" stroke="white" stroke-width="1.5" stroke-linecap="round" stroke-linejoin="round"/>
<path d="M42.7275 32.7864C48.1913 30.599 50.1269 32.955 52.3124 38.4187" stroke="white" stroke-width="1.5" stroke-linecap="round" stroke-linejoin="round"/>
<path d="M32.6396 30.7694L29.3613 43.8843" stroke="white" stroke-width="1.5" stroke-linecap="round" stroke-linejoin="round"/>
<path d="M39.5537 30.9341L37.0117 43.8844" stroke="white" stroke-width="1.5" stroke-linecap="round" stroke-linejoin="round"/>
<path d="M25.118 18.3675L23.4072 11.4177" stroke="white" stroke-width="1.5" stroke-linecap="round" stroke-linejoin="round"/>
</svg>
