<svg width="316" height="398" viewBox="0 0 316 398" fill="none" xmlns="http://www.w3.org/2000/svg">
<path d="M310 170V167.5H309.5V166H309V165.5H308V164H307V158.5H307.5V157H308.5H309.5V156H310.5V155H311.5V153.5H310V152H311V150.5H312V149H311V148H307.5V147H307V146H306V145H305V144H304V145H303V146H302V147H300V146.5H297V147H291V146.5H290.5V145.5H289.5V144.5H289V143H288V141.5H287.5V140.5H286.5V139H286V138H285V137H284.5V133H283.5V132H282.5V131H284V129H285V128H286V126.5H287V124.5H287.5V121H288.5V109H289V106H290V105H295V104H296V97.5H296.5V96H297.5V83.5H298.5V79H297.5V77H296.5V73H296V71.5H295V69H294V68H293V67.5H292V66.5H290V65.5H288.5V63.5H287.5V62H287V61.5H285V62H284V63H283.5V64.5H282.5V65.5H282V67H280.5V68H271V67H258V66.5H252.5V65.5H247.5V64.5H244.5V64H241.5V63H240.5V62.5H238.5V61.5H237.5V60.5H237V60H235V59H234.5V58H230.5V59H228.5V60H227V60.5H226V61.5H224.5V63H223.5V64H223V68H222V72.5H221.5V73H220.5V74H219.5V75.5H219V76.5H218V77H217V79.5H216V81H215.5V82H214.5V83.5H214V84.5H213V86H212V88H211.5V90H209V89.5H208.5V88.5H207.5V87H207V84.5H206V83H205V82H203V81.5H201.5V80.5H199V79.5H192.5V80.5H192V81H191V82H190V85.5H189V88H188.5V89.5H187.5V91H187V92.5H185V94.5H184.5V95H183.5V96H183V96.5H174.5V97.5H172V98H170.5V99H168.5V100H165.5V100.5H164V101.5H163V102H162V103H161V104H156.5V103H153V104H152.5V105H151.5V106H150.5V110H151.5V111H152.5V111.5H151.5V112.5H150V113H146.5V114H146V114.5H145V116.5H144.5V122H143.5V129.5H144V130.5H145V139.5H146.5V142H146V149H142.5V148.5H141.5V150.5H140V150H136V149H133.5V145.5H134.5V142H135.5V139.5H136V137.5H135.5V135H131V134.5H129V133.5H127V132H126.5V130.5H125.5V129.5H122.5V129H121.5V128H120.5V127H119V128H118V128.5H115V124.5H115.5V121.5H116.5V119H117V115.5H116.5V114.5H115V114H112V113H106.5V112H100V111.5H93.5V110H92.5V101H92V97.5H91V87.5V87H90V84.5H91V74H92V73H93.5V72H94.5V71.5H95V70.5H96V69H97V68H98.5V66.5H99V66H100V65H101V64H102V60H101.5V59H101V58.5H100V57.5H98.5V56.5H96V55H95V53H93.5V51.5H93V51H92V50H91V47H92V46H92.5V45H93.5V42H92.5V40H92V38.5H91V34.5H90V32H89.5V28.5H88.5V26H88V23H87V21H86V19.5H85V19H82V18H73V17H72V16.5H71.5V7.5H70.5V6H70V5H67V6H66.5V6.5H64V5H60V4H59V3.5H50V5H47.5V4H47V3.5H46V2.5H43.5V2H41.5V2.5H40.5V3.5H39.5V4H38.5V5.5V7H38V10H37V11H36.5V12H35.5V17H35V25.5H34V28H33V29H32.5V30.5H31.5V31.5H30.5V34H31.5V35H32.5V36.5H33V38H32.5V40H31.5V42H32.5V43.5H31.5V44.5H30.5V45.5H29V47H28V49.5H27.5V53H26.5V53.5H25V55H24V56H25V58.5H26V59.5H26.5V60.5H26V61.5H25V63.5H24.5V65H23.5V66H20V65H18.5V66H14V65H10V66H8V67H4.5V67.5H4V70H5V71.5H6V78.5H7V80H11.5V80.5H14V81.5H16.5V82.5H21.5V83H22.5V84H25V83.5H26.5V82.5H27.5V81.5H28V80.5H29V79H33V84.5H32.5V86.5H31.5V89H32.5V91.5H32V95H31V97H30V99H29V101H28V104H29V105H30V106H30.5H31V107H33V108H38V109H39V113.5H38V116H37.5V129H36.5V132H35.5V133.5H35V138H37.5V138.5H40.5V140H42V143H41.5V150H40.5V151H39.5V152H40.5V153H41.5V154H42V155H43.5V156H44.5V157H45.5V157.5H46.5V158.5H47V159H48V160H48.5V161H49.5V162H50.5V163H51.5V164.5H52V166H53V167.5H53.5V173.5H54.5V176.5H49.5V175.5H45.5V175H41.5V176H40.5V178H39.5V178.5H40.5V180H41.5V182H40.5V183H41.5V184H42V187.5H39V188H37V187H36V186.5H35V185.5H34V186.5H33.5V189.5H33V190.5H31.5V194.5H31V195.5H30V196.5H29V197H27.5V198H26V199H25V199.5H20V200.5H15V202H14.5V203.5H13.5V206.5H13V210.5H13.5V214H13V214.5H12V215.5H6.5V216.5H5.5V229H4.5V230.5H4V232.5H3V235.5H2V243H3V244V244.5H4.5V245.5H5V246H6V247H9.5V246.5H14V245.5H18.5V246.5H21V247H43V246.5H44V247H46.5V248H47.5V248.5H48.5V249.5H49.5V250.5H54.5V251.5H58.5V252.5H59.5V255.5H59V257H58V258H57V258.5H55.5V259.5H55V260H54V261H53.5V262.5H53V266.5H54V269.5H53V270H52V271H51V274.5H52V277.5H53.5V278H53V280H51V281.5H50.5V283H49.5V284H46.5V282.5H45.5H43V283H42V282.5H39V283H38V284H35.5V285H35V285.5H32.5V286.5H27.5V285.5H25.5V285H20.5V287.5V288H21.5V290.5H20.5V291.5H17.5V292H17V294H16V297H15V299.5H16V303H17V303.5H18.5V304.5H20V306H21V311H20V312.5H19V314H18.5V316.5H19V318H20V320H19.5V321H20V323H19V324H17.5V325.5H18.5V328H17.5V329H17V330.5H17.5V331.5H19.5V332.5H21.5V333H25V332.5H25.5V331.5H27.5V332H34.5V333H35.5V337.5H36.5V339.5H37.5V340.5H38V341.5H41.5V340.5H44.5V340H46.5V338H48V337H49V338H52V337H53V333.5H54V332H55.5V331.5H56V331H57.5V329.5H58.5V328.5H61V326.5H62V325H64.5V325.5H65V326.5H66.5V327.5H71.5V327H72.5V325.5H74V326.5H75V327V327.5H77.5V326.5H78V326H79V325H80.5V324H81.5V321.5H81V320H82.5V319H84V317.5H83.5V316H90V316.5V317.5H91.5V316.5H92V316H94V315H95.5V314.5H96.5V312.5H98V313.5H99V314H101V313.5H102V312.5H103V312H104V312.5H104.5V313.5H106V316.5H107V318H110.5V318.5H113.5V318H114.5V317H115.5V314H116V311H117V310.5H118V309H116.5V308.5H115V307H116V304.5H117V303H119V302H120.5V301H121.5V302H122.5V302.5H123.5V303.5H122.5V308.5H121.5V309H121V312H121.5V314.5H123.5V317.5H124.5V319H125V320H126V322.5H127.5V323H132.5V324H134V323H135V321.5H139.5V321H142V320H143.5V321.5H144.5V324H145.5V325.5H146V326.5H147V329H146V332.5H148V335.5H149.5V334.5H150.5V334H155V334.5H159V336H160V337.5H161V340H162V341H163.5V343.5H163V346H162V348.5H161V352H162V353.5H163V355H164.5V356H166V355.5H167V353.5H167.5V353H170V353.5H173.5V352H174V351H175.5V353.5H176.5M311 170V171H312V171.5H312.5V172.5H313.5V173.5H314.5V179H313.5V180H311.5V180.5H311V181.5H310V182.5H309V183.5H308.5V186.5H309.5V188.5H308.5V193.5H309.5V196H310V197H311V199.5H312V200.5H312.5V202H312V203H310V202H308.5V201.5H307V202H306V203H305V204H299V204.5H298V205.5H297V206H295.5V207H293.5V208H289V207H288V205.5H287V204.5H286V203.5H285.5V200.5H284.5V199.5H284V198.5H283V198H281.5V198.5H276.5V201H275.5V203.5H275V207H274V208.5H273.5V209.5H272.5V210H263.5V209.5H261V208.5H260V207.5H258.5V207H256V206H254V207H252.5V208H249.5V205.5H248.5V204H248V203.5H245V204.5H243V205.5H238V206H237.5V207H236.5V207.5H235V209.5H234V210H233V211H232.5V212.5H231.5V221.5H230.5V222.5H230V224H229V225M228.5 225V226H227.5V228H228V229H229V230H230V230.5H231.5V231.5H232V232.5H233V234H234V235H233V239H235V239.5H236.5V238H238V239H239V239.5H238V243H237V247H236.5V248.5H235.5V254.5H236.5V255H237.5V258.5H238V260.5H239V263.5H237V267H236.5V271H235.5V272.5H235V274H236.5V275.5H233V276.5H232.5V278.5H231.5V279H230V280H227.5V281.5H226.5V285.5H224.5V286.5H222.5V285.5H220.5V285H218.5V285.5H217.5V286.5H214.5V287H210.5V288H208.5V289H207.5V292H207V298H208V301H207V302H208V302.5H209.5V303.5H210V305.5H211V306.5H212V312H213V314.5H213.5V318.5H215V319.5H216V320.5H217.5V325.5H218.5V326.5H221V325.5H222V326.5H222.5V327.5H221.5V329H225V329.5H226.5V330.5H227.5V331.5H228.5V332.5H227.5V333H226.5V334.5H226V337H225V339H224V340H223.5V342.5H222.5V346H221.5V348H212.5V360.213H211.867V362.651H212.696V364.31H213.5V366H216V365H217.5V366H218.5V369H217.5V372.5H218.5V373.5H221V375H222V376H222.5V382.5H223.5V381.5H226V382.5H226.5V383H227.5V384H226.5V385H226V385.5H225V389.5H224.5V390.5H223.5V391.5H222.5V394.5H221.5V395.5H221V396H219.5V395.5H219V394.5H217V396H215.5V395.5H215V394H214V393H213.5V392H210V393H207.5V392H206V391.5H204V390.5H203.5V388H202.5V387H202V386.5H200.5V385.5H199V384.5H198V381.5H197V380H198V379H198.5V376.5H198V375H197V374H195.5V376.5H195V377H191.5V376.5H188V376H187.5V375H186V373.5H186.5V372.5H187.5V370.5H185.5V371.5H184V370.5H183V369H182V367.5H181.5V366H180.5V364.31H181.5V362.651H180.5V361.5H179.5V361H179V359H180V357H177.5V356H176.5" stroke="#F3803F" stroke-width="3"/>
</svg>
