<svg width="62" height="62" viewBox="0 0 62 62" fill="none" xmlns="http://www.w3.org/2000/svg">
<rect width="62" height="62" rx="31" fill="#F3803F"/>
<path d="M34.7914 27.764C36.5908 31.2761 39.2181 30.6071 40.7499 33.702C41.2899 34.7351 41.3974 35.9405 41.0488 37.0529C40.7001 38.1653 39.9238 39.0936 38.8907 39.6336C37.8576 40.1737 36.6522 40.2812 35.5398 39.9326C34.4274 39.5839 33.4991 38.8076 32.9591 37.7745C32.3435 36.597 32.2318 32.4599 34.7914 27.764Z" stroke="white" stroke-width="1.5" stroke-linecap="round" stroke-linejoin="round"/>
<path d="M48.1725 47.3552L40.4053 38.3286" stroke="white" stroke-width="1.5" stroke-linecap="round" stroke-linejoin="round"/>
<path d="M37.4395 40.1027L42.3526 48.6035" stroke="white" stroke-width="1.5" stroke-linecap="round" stroke-linejoin="round"/>
<path d="M12.0723 24.9902H41.3433" stroke="white" stroke-width="1.5" stroke-linecap="round" stroke-linejoin="round"/>
<path d="M15.3604 32.8613H29.2812" stroke="white" stroke-width="1.5" stroke-linecap="round" stroke-linejoin="round"/>
<path d="M33.7618 43.1426C33.3957 44.9398 33.2132 46.7695 33.2171 48.6035H20.6233C20.6892 42.1794 18.3279 35.967 14.0116 31.2084C13.1077 30.2091 12.4732 28.996 12.168 27.6836C11.8629 26.3711 11.897 25.0025 12.2674 23.7069C12.6377 22.4114 13.332 21.2315 14.2847 20.2785C15.2374 19.3256 16.4171 18.6311 17.7126 18.2605C18.0969 18.1498 18.4246 17.897 18.6293 17.5535C18.8339 17.2099 18.9002 16.8014 18.8146 16.4108C18.661 15.4629 18.276 14.5674 17.6937 13.8039C17.5839 13.6826 17.5119 13.5319 17.4863 13.3704C17.4607 13.2088 17.4827 13.0433 17.5497 12.894C17.6166 12.7447 17.7256 12.6182 17.8633 12.5299C18.001 12.4415 18.1614 12.3952 18.325 12.3965" stroke="white" stroke-width="1.5" stroke-linecap="round" stroke-linejoin="round"/>
<path d="M18.3252 12.3965H35.5157C35.6788 12.3962 35.8386 12.4431 35.9756 12.5317C36.1126 12.6203 36.2209 12.7467 36.2876 12.8957C36.3542 13.0446 36.3762 13.2096 36.351 13.3708C36.3258 13.532 36.2543 13.6824 36.1454 13.8038C35.562 14.567 35.1764 15.4625 35.0229 16.4107C34.9373 16.8014 35.0036 17.2099 35.2082 17.5534C35.4129 17.897 35.7406 18.1498 36.1249 18.2605C37.2018 18.5693 38.2011 19.1027 39.0569 19.8257C39.9128 20.5486 40.6058 21.4447 41.0903 22.4548C41.5748 23.4649 41.8399 24.5662 41.8681 25.6862C41.8962 26.8061 41.6868 27.9194 41.2537 28.9525" stroke="white" stroke-width="1.5" stroke-linecap="round" stroke-linejoin="round"/>
</svg>
