<svg width="62" height="62" viewBox="0 0 62 62" fill="none" xmlns="http://www.w3.org/2000/svg">
<rect width="62" height="62" rx="31" fill="#F3803F"/>
<path d="M38.7502 38.0138C39.3315 45.4925 50.3752 40.3581 49.5227 42.935C44.6402 57.4275 25.0327 53.9594 16.5852 45.2019C12.6953 41.2279 10.5299 35.88 10.5589 30.3191C10.5879 24.7582 12.8091 19.4332 16.7402 15.5C24.9358 7.38188 38.7502 6.78126 46.3646 15.5C61.1477 32.6663 38.2852 31.3488 38.7502 38.0138Z" stroke="white" stroke-width="1.5" stroke-linecap="round" stroke-linejoin="round"/>
<path d="M18.7363 33.5381C18.7363 33.9249 18.8125 34.3078 18.9605 34.6651C19.1085 35.0224 19.3254 35.3471 19.5989 35.6206C19.8724 35.894 20.197 36.111 20.5543 36.259C20.9116 36.407 21.2946 36.4831 21.6813 36.4831C22.0681 36.4831 22.451 36.407 22.8083 36.259C23.1656 36.111 23.4903 35.894 23.7638 35.6206C24.0372 35.3471 24.2542 35.0224 24.4022 34.6651C24.5502 34.3078 24.6263 33.9249 24.6263 33.5381C24.6263 32.7571 24.3161 32.008 23.7638 31.4557C23.2115 30.9034 22.4624 30.5931 21.6813 30.5931C20.9003 30.5931 20.1512 30.9034 19.5989 31.4557C19.0466 32.008 18.7363 32.7571 18.7363 33.5381Z" stroke="white" stroke-width="1.5" stroke-linecap="round" stroke-linejoin="round"/>
<path d="M26.0205 42.8963C26.0205 43.283 26.0967 43.666 26.2447 44.0233C26.3927 44.3806 26.6096 44.7053 26.8831 44.9787C27.1565 45.2522 27.4812 45.4691 27.8385 45.6171C28.1958 45.7651 28.5788 45.8413 28.9655 45.8413C29.3523 45.8413 29.7352 45.7651 30.0925 45.6171C30.4498 45.4691 30.7745 45.2522 31.0479 44.9787C31.3214 44.7053 31.5383 44.3806 31.6863 44.0233C31.8343 43.666 31.9105 43.283 31.9105 42.8963C31.9105 42.5096 31.8343 42.1266 31.6863 41.7693C31.5383 41.412 31.3214 41.0873 31.0479 40.8139C30.7745 40.5404 30.4498 40.3235 30.0925 40.1755C29.7352 40.0275 29.3523 39.9513 28.9655 39.9513C28.5788 39.9513 28.1958 40.0275 27.8385 40.1755C27.4812 40.3235 27.1565 40.5404 26.8831 40.8139C26.6096 41.0873 26.3927 41.412 26.2447 41.7693C26.0967 42.1266 26.0205 42.5096 26.0205 42.8963Z" stroke="white" stroke-width="1.5" stroke-linecap="round" stroke-linejoin="round"/>
<path d="M33.0732 19.2006C33.0732 19.9817 33.3835 20.7308 33.9358 21.2831C34.4881 21.8354 35.2372 22.1456 36.0182 22.1456C36.7993 22.1456 37.5484 21.8354 38.1007 21.2831C38.653 20.7308 38.9632 19.9817 38.9632 19.2006C38.9632 18.4196 38.653 17.6705 38.1007 17.1182C37.5484 16.5659 36.7993 16.2556 36.0182 16.2556C35.2372 16.2556 34.4881 16.5659 33.9358 17.1182C33.3835 17.6705 33.0732 18.4196 33.0732 19.2006Z" stroke="white" stroke-width="1.5" stroke-linecap="round" stroke-linejoin="round"/>
<path d="M20.5762 22.32C20.5762 23.1011 20.8864 23.8502 21.4387 24.4025C21.991 24.9548 22.7401 25.265 23.5212 25.265C24.3022 25.265 25.0513 24.9548 25.6036 24.4025C26.1559 23.8502 26.4662 23.1011 26.4662 22.32C26.4662 21.539 26.1559 20.7899 25.6036 20.2376C25.0513 19.6853 24.3022 19.375 23.5212 19.375C22.7401 19.375 21.991 19.6853 21.4387 20.2376C20.8864 20.7899 20.5762 21.539 20.5762 22.32Z" stroke="white" stroke-width="1.5" stroke-linecap="round" stroke-linejoin="round"/>
</svg>
