<svg width="62" height="63" viewBox="0 0 62 63" fill="none" xmlns="http://www.w3.org/2000/svg">
<rect y="0.103516" width="62" height="62" rx="31" fill="#F3803F"/>
<g clip-path="url(#clip0_188_870)">
<path d="M34.7914 27.8672C36.5908 31.3793 39.2181 30.7102 40.7499 33.8051C41.2899 34.8383 41.3974 36.0436 41.0488 37.156C40.7001 38.2684 39.9238 39.1967 38.8907 39.7368C37.8576 40.2768 36.6522 40.3844 35.5398 40.0357C34.4274 39.687 33.4991 38.9108 32.9591 37.8776C32.3435 36.7001 32.2318 32.5631 34.7914 27.8672Z" stroke="white" stroke-width="1.5" stroke-linecap="round" stroke-linejoin="round"/>
<path d="M48.1725 47.4582L40.4053 38.4316" stroke="white" stroke-width="1.5" stroke-linecap="round" stroke-linejoin="round"/>
<path d="M37.4395 40.2061L42.3526 48.7068" stroke="white" stroke-width="1.5" stroke-linecap="round" stroke-linejoin="round"/>
<path d="M12.0723 25.0938H41.3433" stroke="white" stroke-width="1.5" stroke-linecap="round" stroke-linejoin="round"/>
<path d="M15.3604 32.9648H29.2812" stroke="white" stroke-width="1.5" stroke-linecap="round" stroke-linejoin="round"/>
<path d="M33.7618 43.2461C33.3957 45.0433 33.2132 46.873 33.2171 48.7071H20.6233C20.6892 42.2829 18.3279 36.0705 14.0116 31.3119C13.1077 30.3126 12.4732 29.0996 12.168 27.7871C11.8629 26.4746 11.897 25.106 12.2674 23.8105C12.6377 22.5149 13.332 21.335 14.2847 20.382C15.2374 19.4291 16.4171 18.7346 17.7126 18.364C18.0969 18.2533 18.4246 18.0005 18.6293 17.657C18.8339 17.3134 18.9002 16.9049 18.8146 16.5143C18.661 15.5664 18.276 14.671 17.6937 13.9074C17.5839 13.7861 17.5119 13.6355 17.4863 13.4739C17.4607 13.3123 17.4827 13.1468 17.5497 12.9975C17.6166 12.8483 17.7256 12.7217 17.8633 12.6334C18.001 12.545 18.1614 12.4987 18.325 12.5" stroke="white" stroke-width="1.5" stroke-linecap="round" stroke-linejoin="round"/>
<path d="M18.3252 12.5H35.5157C35.6788 12.4997 35.8386 12.5466 35.9756 12.6352C36.1126 12.7238 36.2209 12.8502 36.2876 12.9992C36.3542 13.1481 36.3762 13.3131 36.351 13.4743C36.3258 13.6355 36.2543 13.7859 36.1454 13.9074C35.562 14.6705 35.1764 15.566 35.0229 16.5143C34.9373 16.9049 35.0036 17.3134 35.2082 17.657C35.4129 18.0005 35.7406 18.2533 36.1249 18.364C37.2018 18.6728 38.2011 19.2063 39.0569 19.9292C39.9128 20.6521 40.6058 21.5482 41.0903 22.5583C41.5748 23.5684 41.8399 24.6697 41.8681 25.7897C41.8962 26.9096 41.6868 28.0229 41.2537 29.0561" stroke="white" stroke-width="1.5" stroke-linecap="round" stroke-linejoin="round"/>
</g>
<defs>
<clipPath id="clip0_188_870">
<rect width="39" height="39" fill="white" transform="translate(11 11.1035)"/>
</clipPath>
</defs>
</svg>
