<svg width="62" height="62" viewBox="0 0 62 62" fill="none" xmlns="http://www.w3.org/2000/svg">
<rect width="62" height="62" rx="31" fill="#F3803F"/>
<path d="M15.2286 52.7775L11.1211 47.895C9.87512 46.3532 9.19173 44.4329 9.18359 42.4506V32.4337C9.18359 31.663 9.48979 30.9237 10.0348 30.3787C10.5798 29.8337 11.3191 29.5275 12.0898 29.5275C12.4715 29.5275 12.8494 29.6027 13.202 29.7487C13.5546 29.8948 13.875 30.1088 14.1449 30.3787C14.4147 30.6486 14.6288 30.969 14.7749 31.3216C14.9209 31.6742 14.9961 32.0521 14.9961 32.4337V39.9706" stroke="white" stroke-width="1.5" stroke-linecap="round" stroke-linejoin="round"/>
<path d="M23.7338 52.7775V46.6938C23.7375 44.9684 23.2247 43.2814 22.2613 41.85L20.0525 38.5369C19.8631 38.2165 19.6098 37.9386 19.3084 37.7203C19.007 37.502 18.6639 37.3481 18.3004 37.2682C17.9369 37.1882 17.5609 37.1839 17.1957 37.2555C16.8305 37.3271 16.4839 37.4731 16.1775 37.6844C15.6298 38.0527 15.2351 38.6081 15.0675 39.2465C14.8998 39.885 14.9707 40.5626 15.2669 41.1525L17.8825 45.5119" stroke="white" stroke-width="1.5" stroke-linecap="round" stroke-linejoin="round"/>
<path d="M46.752 52.7775L50.8788 47.895C52.1248 46.3532 52.8082 44.4329 52.8163 42.4506V32.4337C52.8163 31.663 52.5101 30.9237 51.9651 30.3787C51.4201 29.8337 50.6809 29.5275 49.9101 29.5275C49.1393 29.5275 48.4001 29.8337 47.855 30.3787C47.31 30.9237 47.0038 31.663 47.0038 32.4337V39.9125" stroke="white" stroke-width="1.5" stroke-linecap="round" stroke-linejoin="round"/>
<path d="M38.2656 52.7775V46.6938C38.2619 44.9684 38.7747 43.2814 39.7381 41.85L41.9469 38.5369C42.1363 38.2165 42.3896 37.9386 42.691 37.7203C42.9925 37.502 43.3356 37.3481 43.6991 37.2682C44.0625 37.1882 44.4386 37.1839 44.8038 37.2555C45.169 37.3271 45.5155 37.4731 45.8219 37.6844C46.3697 38.0527 46.7644 38.6081 46.932 39.2465C47.0996 39.885 47.0287 40.5626 46.7325 41.1525L44.1169 45.5119" stroke="white" stroke-width="1.5" stroke-linecap="round" stroke-linejoin="round"/>
<path d="M21.1572 12.6325C21.1572 13.5472 22.1942 14.4244 24.04 15.0711C25.8859 15.7179 28.3893 16.0812 30.9997 16.0812C33.6101 16.0812 36.1136 15.7179 37.9594 15.0711C39.8052 14.4244 40.8422 13.5472 40.8422 12.6325C40.8422 11.7178 39.8052 10.8406 37.9594 10.1939C36.1136 9.5471 33.6101 9.18375 30.9997 9.18375C28.3893 9.18375 25.8859 9.5471 24.04 10.1939C22.1942 10.8406 21.1572 11.7178 21.1572 12.6325Z" stroke="white" stroke-width="1.5" stroke-linecap="round" stroke-linejoin="round"/>
<path d="M21.1575 12.6325C21.1549 13.7948 21.3786 14.9464 21.8163 16.0231C22.0235 16.546 22.0966 17.1125 22.0289 17.6708C21.9612 18.2292 21.7549 18.7618 21.4288 19.22C20.0918 21.0691 19.3731 23.2932 19.375 25.575C19.4002 27.0762 19.721 28.5578 20.3189 29.9351C20.9168 31.3123 21.7801 32.5583 22.8597 33.6019C23.9392 34.6454 25.2137 35.4661 26.6105 36.0169C28.0072 36.5678 29.4988 36.8382 31 36.8125C32.5012 36.8382 33.9928 36.5678 35.3895 36.0169C36.7863 35.4661 38.0608 34.6454 39.1403 33.6019C40.2199 32.5583 41.0832 31.3123 41.6811 29.9351C42.279 28.5578 42.5998 27.0762 42.625 25.575C42.6269 23.2932 41.9082 21.0691 40.5713 19.22C40.2451 18.7618 40.0388 18.2292 39.9711 17.6708C39.9034 17.1125 39.9765 16.546 40.1838 16.0231C40.6214 14.9464 40.8451 13.7948 40.8425 12.6325" stroke="white" stroke-width="1.5" stroke-linecap="round" stroke-linejoin="round"/>
</svg>
