<svg width="62" height="63" viewBox="0 0 62 63" fill="none" xmlns="http://www.w3.org/2000/svg">
<rect y="0.103516" width="62" height="62" rx="31" fill="#F3803F"/>
<path d="M15.2286 52.8809L11.1211 47.9984C9.87512 46.4566 9.19173 44.5363 9.18359 42.554V32.5371C9.18359 31.7663 9.48979 31.0271 10.0348 30.4821C10.5798 29.9371 11.3191 29.6309 12.0898 29.6309C12.4715 29.6309 12.8494 29.706 13.202 29.8521C13.5546 29.9981 13.875 30.2122 14.1449 30.4821C14.4147 30.752 14.6288 31.0723 14.7749 31.4249C14.9209 31.7775 14.9961 32.1555 14.9961 32.5371V40.074" stroke="white" stroke-width="1.5" stroke-linecap="round" stroke-linejoin="round"/>
<path d="M23.7338 52.8813V46.7975C23.7375 45.0722 23.2247 43.3852 22.2613 41.9538L20.0525 38.6407C19.8631 38.3203 19.6098 38.0423 19.3084 37.8241C19.007 37.6058 18.6639 37.4519 18.3004 37.3719C17.9369 37.292 17.5609 37.2877 17.1957 37.3593C16.8305 37.4309 16.4839 37.5769 16.1775 37.7882C15.6298 38.1565 15.2351 38.7119 15.0675 39.3503C14.8998 39.9887 14.9707 40.6664 15.2669 41.2563L17.8825 45.6157" stroke="white" stroke-width="1.5" stroke-linecap="round" stroke-linejoin="round"/>
<path d="M46.752 52.8809L50.8788 47.9984C52.1248 46.4566 52.8082 44.5363 52.8163 42.554V32.5371C52.8163 31.7663 52.5101 31.0271 51.9651 30.4821C51.4201 29.9371 50.6809 29.6309 49.9101 29.6309C49.1393 29.6309 48.4001 29.9371 47.855 30.4821C47.31 31.0271 47.0038 31.7663 47.0038 32.5371V40.0159" stroke="white" stroke-width="1.5" stroke-linecap="round" stroke-linejoin="round"/>
<path d="M38.2656 52.8813V46.7975C38.2619 45.0722 38.7747 43.3852 39.7381 41.9538L41.9469 38.6407C42.1363 38.3203 42.3896 38.0423 42.691 37.8241C42.9925 37.6058 43.3356 37.4519 43.6991 37.3719C44.0625 37.292 44.4386 37.2877 44.8038 37.3593C45.169 37.4309 45.5155 37.5769 45.8219 37.7882C46.3697 38.1565 46.7644 38.7119 46.932 39.3503C47.0996 39.9887 47.0287 40.6664 46.7325 41.2563L44.1169 45.6157" stroke="white" stroke-width="1.5" stroke-linecap="round" stroke-linejoin="round"/>
<path d="M21.1572 12.7359C21.1572 13.6505 22.1942 14.5277 24.04 15.1745C25.8859 15.8213 28.3893 16.1846 30.9997 16.1846C33.6101 16.1846 36.1136 15.8213 37.9594 15.1745C39.8052 14.5277 40.8422 13.6505 40.8422 12.7359C40.8422 11.8212 39.8052 10.944 37.9594 10.2972C36.1136 9.65046 33.6101 9.28711 30.9997 9.28711C28.3893 9.28711 25.8859 9.65046 24.04 10.2972C22.1942 10.944 21.1572 11.8212 21.1572 12.7359Z" stroke="white" stroke-width="1.5" stroke-linecap="round" stroke-linejoin="round"/>
<path d="M21.1575 12.7363C21.1549 13.8986 21.3786 15.0502 21.8163 16.127C22.0235 16.6498 22.0966 17.2163 22.0289 17.7746C21.9612 18.333 21.7549 18.8656 21.4288 19.3238C20.0918 21.1729 19.3731 23.397 19.375 25.6788C19.4002 27.1801 19.721 28.6616 20.3189 30.0389C20.9168 31.4162 21.7801 32.6621 22.8597 33.7057C23.9392 34.7492 25.2137 35.5699 26.6105 36.1208C28.0072 36.6717 29.4988 36.942 31 36.9163C32.5012 36.942 33.9928 36.6717 35.3895 36.1208C36.7863 35.5699 38.0608 34.7492 39.1403 33.7057C40.2199 32.6621 41.0832 31.4162 41.6811 30.0389C42.279 28.6616 42.5998 27.1801 42.625 25.6788C42.6269 23.397 41.9082 21.1729 40.5713 19.3238C40.2451 18.8656 40.0388 18.333 39.9711 17.7746C39.9034 17.2163 39.9765 16.6498 40.1838 16.127C40.6214 15.0502 40.8451 13.8986 40.8425 12.7363" stroke="white" stroke-width="1.5" stroke-linecap="round" stroke-linejoin="round"/>
</svg>
