<svg width="62" height="63" viewBox="0 0 62 63" fill="none" xmlns="http://www.w3.org/2000/svg">
<rect y="0.103516" width="62" height="62" rx="31" fill="#F3803F"/>
<path d="M37.9752 20.2537C38.944 20.06 40.494 21.2225 40.8815 23.5475L42.6252 42.1475C42.819 47.185 19.1815 47.185 19.3752 42.1475L21.119 23.5475C21.3127 21.2225 23.0565 20.06 24.0252 20.2537" stroke="white" stroke-width="1.5" stroke-linecap="round" stroke-linejoin="round"/>
<path d="M41.6561 31.4912C34.2936 31.4912 27.1248 29.5537 20.9248 25.6787" stroke="white" stroke-width="1.5" stroke-linecap="round" stroke-linejoin="round"/>
<path d="M42.4313 39.2408H41.85C34.4875 39.2408 27.125 37.6908 20.3438 34.5908" stroke="white" stroke-width="1.5" stroke-linecap="round" stroke-linejoin="round"/>
<path d="M24.4121 12.1162C24.4121 12.887 25.1061 13.6262 26.3415 14.1712C27.5769 14.7163 29.2525 15.0225 30.9996 15.0225C32.7467 15.0225 34.4223 14.7163 35.6577 14.1712C36.8931 13.6262 37.5871 12.887 37.5871 12.1162C37.5871 11.3454 36.8931 10.6062 35.6577 10.0612C34.4223 9.51615 32.7467 9.20996 30.9996 9.20996C29.2525 9.20996 27.5769 9.51615 26.3415 10.0612C25.1061 10.6062 24.4121 11.3454 24.4121 12.1162Z" stroke="white" stroke-width="1.5" stroke-linecap="round" stroke-linejoin="round"/>
<path d="M23.0561 45.0537L22.8623 49.51C22.8623 51.2537 26.5436 52.8037 30.9998 52.8037C35.4561 52.8037 39.1373 51.2537 39.1373 49.51L38.9436 45.0537" stroke="white" stroke-width="1.5" stroke-linecap="round" stroke-linejoin="round"/>
<path d="M24.4129 12.1162L24.0254 20.2537C28.4816 21.9975 33.5191 21.9975 37.9754 20.2537L37.5879 12.1162" stroke="white" stroke-width="1.5" stroke-linecap="round" stroke-linejoin="round"/>
</svg>
