<svg width="62" height="62" viewBox="0 0 62 62" fill="none" xmlns="http://www.w3.org/2000/svg">
<rect width="62" height="62" rx="31" fill="#F3803F"/>
<path d="M37.9752 20.15C38.944 19.9562 40.494 21.1187 40.8815 23.4437L42.6252 42.0437C42.819 47.0812 19.1815 47.0812 19.3752 42.0437L21.119 23.4437C21.3127 21.1187 23.0565 19.9562 24.0252 20.15" stroke="white" stroke-width="1.5" stroke-linecap="round" stroke-linejoin="round"/>
<path d="M41.6561 31.3875C34.2936 31.3875 27.1248 29.45 20.9248 25.575" stroke="white" stroke-width="1.5" stroke-linecap="round" stroke-linejoin="round"/>
<path d="M42.4313 39.1375H41.85C34.4875 39.1375 27.125 37.5875 20.3438 34.4875" stroke="white" stroke-width="1.5" stroke-linecap="round" stroke-linejoin="round"/>
<path d="M24.4121 12.0125C24.4121 12.7833 25.1061 13.5225 26.3415 14.0675C27.5769 14.6126 29.2525 14.9188 30.9996 14.9188C32.7467 14.9188 34.4223 14.6126 35.6577 14.0675C36.8931 13.5225 37.5871 12.7833 37.5871 12.0125C37.5871 11.2417 36.8931 10.5025 35.6577 9.95748C34.4223 9.41246 32.7467 9.10626 30.9996 9.10626C29.2525 9.10626 27.5769 9.41246 26.3415 9.95748C25.1061 10.5025 24.4121 11.2417 24.4121 12.0125Z" stroke="white" stroke-width="1.5" stroke-linecap="round" stroke-linejoin="round"/>
<path d="M23.0561 44.95L22.8623 49.4063C22.8623 51.15 26.5436 52.7 30.9998 52.7C35.4561 52.7 39.1373 51.15 39.1373 49.4063L38.9436 44.95" stroke="white" stroke-width="1.5" stroke-linecap="round" stroke-linejoin="round"/>
<path d="M24.4129 12.0125L24.0254 20.15C28.4816 21.8938 33.5191 21.8938 37.9754 20.15L37.5879 12.0125" stroke="white" stroke-width="1.5" stroke-linecap="round" stroke-linejoin="round"/>
</svg>
