<svg width="62" height="63" viewBox="0 0 62 63" fill="none" xmlns="http://www.w3.org/2000/svg">
<rect y="0.103516" width="62" height="62" rx="31" fill="#F3803F"/>
<path d="M9.20312 31.1035C9.20313 36.8844 11.4996 42.4285 15.5873 46.5162C19.675 50.6039 25.2191 52.9004 31 52.9004C36.7809 52.9004 42.325 50.6039 46.4127 46.5162C50.5004 42.4285 52.7969 36.8844 52.7969 31.1035C52.7969 25.3226 50.5004 19.7785 46.4127 15.6908C42.325 11.6031 36.7809 9.30664 31 9.30664C25.2191 9.30664 19.675 11.6031 15.5873 15.6908C11.4996 19.7785 9.20313 25.3226 9.20312 31.1035Z" stroke="white" stroke-width="1.5" stroke-linecap="round" stroke-linejoin="round"/>
<path d="M36.8125 25.291L31 9.30664L25.1875 25.291L9.20312 31.1035L25.1875 36.916L31 52.9004L36.8125 36.916C42.9427 34.872 52.7969 31.1035 52.7969 31.1035L36.8125 25.291Z" stroke="white" stroke-width="1.5" stroke-linecap="round" stroke-linejoin="round"/>
<path d="M41.1719 20.9316L20.8281 41.2754" stroke="white" stroke-width="1.5" stroke-linecap="round" stroke-linejoin="round"/>
<path d="M41.1719 41.2754L20.8281 20.9316" stroke="white" stroke-width="1.5" stroke-linecap="round" stroke-linejoin="round"/>
</svg>
