<svg width="62" height="62" viewBox="0 0 62 62" fill="none" xmlns="http://www.w3.org/2000/svg">
<rect width="62" height="62" rx="31" fill="#F3803F"/>
<path d="M33.1549 37.2741H47.6357C48.2941 37.2741 48.9255 37.5356 49.3911 38.0012C49.8566 38.4667 50.1182 39.0982 50.1182 39.7565V47.6407C50.1182 48.2991 49.8566 48.9305 49.3911 49.396C48.9255 49.8616 48.2941 50.1231 47.6357 50.1231H15.3643C15.0383 50.1231 14.7155 50.0589 14.4143 49.9342C14.1131 49.8094 13.8394 49.6266 13.6089 49.396C13.1434 48.9305 12.8818 48.2991 12.8818 47.6407V39.7565C12.8818 39.0982 13.1434 38.4667 13.6089 38.0012C14.0745 37.5356 14.7059 37.2741 15.3643 37.2741H20.3291" stroke="#FDFCFF" stroke-width="1.5" stroke-linecap="round" stroke-linejoin="round"/>
<path d="M24.0527 40.9977H29.0176" stroke="#FDFCFF" stroke-width="1.5" stroke-linecap="round" stroke-linejoin="round"/>
<path d="M44.0448 44.1272C43.763 43.4462 43.2856 42.864 42.6728 42.4544C42.0601 42.0448 41.3396 41.8262 40.6025 41.8262C39.8655 41.8262 39.145 42.0448 38.5323 42.4544C37.9195 42.864 37.442 43.4462 37.1602 44.1272C36.9691 44.5578 36.6551 44.9224 36.2577 45.1752C35.8603 45.4281 35.397 45.5581 34.9261 45.5488H29.4316" stroke="#FDFCFF" stroke-width="1.5" stroke-linecap="round" stroke-linejoin="round"/>
<path d="M22.8115 45.5489H19.0879" stroke="#FDFCFF" stroke-width="1.5" stroke-linecap="round" stroke-linejoin="round"/>
<path d="M16.6055 37.2741H21.0093C21.6806 37.2741 22.3454 37.1419 22.9656 36.885C23.5858 36.6281 24.1494 36.2515 24.6241 35.7768C25.0988 35.3021 25.4754 34.7385 25.7323 34.1183C25.9892 33.4981 26.1214 32.8333 26.1214 32.162V31.169C26.1216 30.5968 26.0091 30.0303 25.7903 29.5016C25.5715 28.9729 25.2507 28.4925 24.8462 28.0879C24.4417 27.6832 23.9615 27.3623 23.4329 27.1432C22.9043 26.9242 22.3378 26.8115 21.7656 26.8115C21.1077 26.812 20.4616 26.9861 19.8925 27.3162C19.3235 27.6463 18.8516 28.1207 18.5245 28.6915C18.1975 29.2624 18.0268 29.9094 18.0299 30.5672C18.0329 31.2251 18.2095 31.8706 18.5418 32.4383" stroke="#FDFCFF" stroke-width="1.5" stroke-linecap="round" stroke-linejoin="round"/>
<path d="M50.0716 16.0858L40.6103 25.4942L35.3955 21.4147L40.266 13.2807" stroke="#FDFCFF" stroke-width="1.5" stroke-linecap="round" stroke-linejoin="round"/>
<path d="M38.0042 23.4536L30.418 33.15" stroke="#FDFCFF" stroke-width="1.5" stroke-linecap="round" stroke-linejoin="round"/>
<path d="M17.8467 18.5583L19.7085 19.778" stroke="#FDFCFF" stroke-width="1.5" stroke-linecap="round" stroke-linejoin="round"/>
<path d="M28.4317 12.8769L27.7764 14.3332" stroke="#FDFCFF" stroke-width="1.5" stroke-linecap="round" stroke-linejoin="round"/>
<path d="M28.4946 23.5761L27.7764 21.2327" stroke="#FDFCFF" stroke-width="1.5" stroke-linecap="round" stroke-linejoin="round"/>
</svg>
